<mxfile host="app.diagrams.net" modified="2024-11-15T14:39:04.010Z" agent="Mozilla/5.0 (X11; Ubuntu; Linux x86_64; rv:132.0) Gecko/20100101 Firefox/132.0" etag="Td8uF0hWSUTa93ItQKJ2" version="24.6.4" type="device">
  <diagram name="Page-1" id="UZT35TQQGvRzr8qSnucg">
    <mxGraphModel dx="1946" dy="2236" grid="1" gridSize="10" guides="1" tooltips="1" connect="1" arrows="1" fold="1" page="1" pageScale="1" pageWidth="850" pageHeight="1100" math="0" shadow="0">
      <root>
        <mxCell id="0" />
        <mxCell id="1" parent="0" />
        <mxCell id="Sj5W9hqEelweWwCMlrfV-1" value="ChefIndica" style="shape=folder;fontStyle=1;tabWidth=110;tabHeight=30;tabPosition=left;html=1;boundedLbl=1;labelInHeader=1;container=1;collapsible=0;whiteSpace=wrap;" vertex="1" parent="1">
          <mxGeometry y="10" width="830" height="1110" as="geometry" />
        </mxCell>
        <mxCell id="Sj5W9hqEelweWwCMlrfV-2" value="" style="html=1;strokeColor=none;resizeWidth=1;resizeHeight=1;fillColor=none;part=1;connectable=0;allowArrows=0;deletable=0;whiteSpace=wrap;" vertex="1" parent="Sj5W9hqEelweWwCMlrfV-1">
          <mxGeometry width="830" height="874.125" relative="1" as="geometry">
            <mxPoint y="-40" as="offset" />
          </mxGeometry>
        </mxCell>
        <mxCell id="Sj5W9hqEelweWwCMlrfV-3" value="&lt;div&gt;Frontend&lt;/div&gt;" style="shape=folder;fontStyle=1;tabWidth=110;tabHeight=30;tabPosition=left;html=1;boundedLbl=1;labelInHeader=1;container=1;collapsible=0;whiteSpace=wrap;" vertex="1" parent="Sj5W9hqEelweWwCMlrfV-1">
          <mxGeometry x="43.68" y="40" width="753.55" height="500" as="geometry" />
        </mxCell>
        <mxCell id="Sj5W9hqEelweWwCMlrfV-4" value="" style="html=1;strokeColor=none;resizeWidth=1;resizeHeight=1;fillColor=none;part=1;connectable=0;allowArrows=0;deletable=0;whiteSpace=wrap;" vertex="1" parent="Sj5W9hqEelweWwCMlrfV-3">
          <mxGeometry width="753.55" height="349.9988970541892" relative="1" as="geometry">
            <mxPoint y="30" as="offset" />
          </mxGeometry>
        </mxCell>
        <mxCell id="Sj5W9hqEelweWwCMlrfV-75" value="&lt;div&gt;tests&lt;/div&gt;" style="shape=folder;fontStyle=1;tabWidth=70;tabHeight=20;tabPosition=left;html=1;boundedLbl=1;labelInHeader=1;container=1;collapsible=0;whiteSpace=wrap;" vertex="1" parent="Sj5W9hqEelweWwCMlrfV-3">
          <mxGeometry x="66.32" y="450" width="123.68" height="40" as="geometry" />
        </mxCell>
        <mxCell id="Sj5W9hqEelweWwCMlrfV-76" value="" style="html=1;strokeColor=none;resizeWidth=1;resizeHeight=1;fillColor=none;part=1;connectable=0;allowArrows=0;deletable=0;whiteSpace=wrap;" vertex="1" parent="Sj5W9hqEelweWwCMlrfV-75">
          <mxGeometry width="123.67999999999999" height="28.000000000000004" relative="1" as="geometry">
            <mxPoint y="30" as="offset" />
          </mxGeometry>
        </mxCell>
        <mxCell id="Sj5W9hqEelweWwCMlrfV-5" value="&lt;div&gt;Backend&lt;/div&gt;" style="shape=folder;fontStyle=1;tabWidth=110;tabHeight=30;tabPosition=left;html=1;boundedLbl=1;labelInHeader=1;container=1;collapsible=0;whiteSpace=wrap;" vertex="1" parent="Sj5W9hqEelweWwCMlrfV-1">
          <mxGeometry x="39.11" y="570" width="751.78" height="529.24" as="geometry" />
        </mxCell>
        <mxCell id="Sj5W9hqEelweWwCMlrfV-6" value="" style="html=1;strokeColor=none;resizeWidth=1;resizeHeight=1;fillColor=none;part=1;connectable=0;allowArrows=0;deletable=0;whiteSpace=wrap;" vertex="1" parent="Sj5W9hqEelweWwCMlrfV-5">
          <mxGeometry width="751.78" height="370.1695555347617" relative="1" as="geometry">
            <mxPoint y="30" as="offset" />
          </mxGeometry>
        </mxCell>
        <mxCell id="Sj5W9hqEelweWwCMlrfV-7" value="&lt;div&gt;API&lt;/div&gt;" style="shape=folder;fontStyle=1;tabWidth=110;tabHeight=30;tabPosition=left;html=1;boundedLbl=1;labelInHeader=1;container=1;collapsible=0;whiteSpace=wrap;" vertex="1" parent="Sj5W9hqEelweWwCMlrfV-5">
          <mxGeometry x="10.9" y="59.2415066071425" width="729.99" height="381.5268668786991" as="geometry" />
        </mxCell>
        <mxCell id="Sj5W9hqEelweWwCMlrfV-8" value="" style="html=1;strokeColor=none;resizeWidth=1;resizeHeight=1;fillColor=none;part=1;connectable=0;allowArrows=0;deletable=0;whiteSpace=wrap;" vertex="1" parent="Sj5W9hqEelweWwCMlrfV-7">
          <mxGeometry width="729.9900000000001" height="267.0688068150895" relative="1" as="geometry">
            <mxPoint y="30" as="offset" />
          </mxGeometry>
        </mxCell>
        <mxCell id="Sj5W9hqEelweWwCMlrfV-28" value="services" style="shape=folder;fontStyle=1;tabWidth=35;tabHeight=24;tabPosition=left;html=1;boundedLbl=1;whiteSpace=wrap;" vertex="1" parent="Sj5W9hqEelweWwCMlrfV-7">
          <mxGeometry x="15.363853520174091" y="66.94965213415908" width="89.78844077571715" height="89.02293560502979" as="geometry" />
        </mxCell>
        <mxCell id="Sj5W9hqEelweWwCMlrfV-35" value="controllers" style="shape=folder;fontStyle=1;tabWidth=30;tabHeight=24;tabPosition=left;html=1;boundedLbl=1;whiteSpace=wrap;" vertex="1" parent="Sj5W9hqEelweWwCMlrfV-7">
          <mxGeometry x="633.9063918765631" y="47.63711848921065" width="74.42464090964998" height="72.41513103378578" as="geometry" />
        </mxCell>
        <mxCell id="Sj5W9hqEelweWwCMlrfV-44" style="edgeStyle=orthogonalEdgeStyle;rounded=0;orthogonalLoop=1;jettySize=auto;html=1;dashed=1;endArrow=none;endFill=0;startArrow=classic;startFill=1;" edge="1" parent="Sj5W9hqEelweWwCMlrfV-7" source="Sj5W9hqEelweWwCMlrfV-33" target="Sj5W9hqEelweWwCMlrfV-28">
          <mxGeometry relative="1" as="geometry" />
        </mxCell>
        <mxCell id="Sj5W9hqEelweWwCMlrfV-45" style="edgeStyle=orthogonalEdgeStyle;rounded=0;orthogonalLoop=1;jettySize=auto;html=1;dashed=1;entryX=0;entryY=0;entryDx=74.6;entryDy=46.53;entryPerimeter=0;endArrow=none;endFill=0;startArrow=classic;startFill=1;" edge="1" parent="Sj5W9hqEelweWwCMlrfV-7" source="Sj5W9hqEelweWwCMlrfV-33" target="Sj5W9hqEelweWwCMlrfV-35">
          <mxGeometry relative="1" as="geometry">
            <Array as="points">
              <mxPoint x="723.2957729154992" y="327.1578465470774" />
              <mxPoint x="723.2957729154992" y="96.46962141772795" />
            </Array>
          </mxGeometry>
        </mxCell>
        <mxCell id="Sj5W9hqEelweWwCMlrfV-33" value="exceptions" style="shape=folder;fontStyle=1;tabWidth=35;tabHeight=20;tabPosition=left;html=1;boundedLbl=1;whiteSpace=wrap;" vertex="1" parent="Sj5W9hqEelweWwCMlrfV-7">
          <mxGeometry x="549.505257547389" y="285.1411320882909" width="84.40113432917411" height="68.05302641315808" as="geometry" />
        </mxCell>
        <mxCell id="Sj5W9hqEelweWwCMlrfV-32" value="interfaces" style="shape=folder;fontStyle=1;tabWidth=40;tabHeight=17;tabPosition=left;html=1;boundedLbl=1;whiteSpace=wrap;" vertex="1" parent="Sj5W9hqEelweWwCMlrfV-7">
          <mxGeometry x="125.10522748083251" y="188.01033318349792" width="84.40113432917411" height="66.00828987223885" as="geometry" />
        </mxCell>
        <mxCell id="Sj5W9hqEelweWwCMlrfV-31" value="models" style="shape=folder;fontStyle=1;tabWidth=42;tabHeight=19;tabPosition=left;html=1;boundedLbl=1;whiteSpace=wrap;" vertex="1" parent="Sj5W9hqEelweWwCMlrfV-7">
          <mxGeometry x="389.11457612988744" y="168.00701952361615" width="96.10356111027592" height="68.16837052572276" as="geometry" />
        </mxCell>
        <mxCell id="Sj5W9hqEelweWwCMlrfV-51" style="edgeStyle=orthogonalEdgeStyle;rounded=0;orthogonalLoop=1;jettySize=auto;html=1;dashed=1;" edge="1" parent="Sj5W9hqEelweWwCMlrfV-7" source="Sj5W9hqEelweWwCMlrfV-30" target="Sj5W9hqEelweWwCMlrfV-31">
          <mxGeometry relative="1" as="geometry" />
        </mxCell>
        <mxCell id="Sj5W9hqEelweWwCMlrfV-30" value="repositories" style="shape=folder;fontStyle=1;tabWidth=28;tabHeight=20;tabPosition=left;html=1;boundedLbl=1;whiteSpace=wrap;" vertex="1" parent="Sj5W9hqEelweWwCMlrfV-7">
          <mxGeometry x="15.359972655045059" y="305.75522885675525" width="102.48981754007605" height="71.735572370304" as="geometry" />
        </mxCell>
        <mxCell id="Sj5W9hqEelweWwCMlrfV-47" style="edgeStyle=orthogonalEdgeStyle;rounded=0;orthogonalLoop=1;jettySize=auto;html=1;dashed=1;startArrow=classic;startFill=1;endArrow=none;endFill=0;" edge="1" parent="Sj5W9hqEelweWwCMlrfV-7" source="Sj5W9hqEelweWwCMlrfV-29" target="Sj5W9hqEelweWwCMlrfV-35">
          <mxGeometry relative="1" as="geometry" />
        </mxCell>
        <mxCell id="Sj5W9hqEelweWwCMlrfV-29" value="utils" style="shape=folder;fontStyle=1;tabWidth=40;tabHeight=24;tabPosition=left;html=1;boundedLbl=1;whiteSpace=wrap;" vertex="1" parent="Sj5W9hqEelweWwCMlrfV-7">
          <mxGeometry x="328.00715064711426" y="45.98035759964533" width="94.37762774869825" height="74.0718919233511" as="geometry" />
        </mxCell>
        <mxCell id="Sj5W9hqEelweWwCMlrfV-46" style="edgeStyle=orthogonalEdgeStyle;rounded=0;orthogonalLoop=1;jettySize=auto;html=1;entryX=0;entryY=0;entryDx=62.5;entryDy=24;entryPerimeter=0;dashed=1;startArrow=classic;startFill=1;endArrow=none;endFill=0;" edge="1" parent="Sj5W9hqEelweWwCMlrfV-7" source="Sj5W9hqEelweWwCMlrfV-29" target="Sj5W9hqEelweWwCMlrfV-28">
          <mxGeometry relative="1" as="geometry">
            <Array as="points">
              <mxPoint x="77.8166486722882" y="82.83804447826638" />
            </Array>
          </mxGeometry>
        </mxCell>
        <mxCell id="Sj5W9hqEelweWwCMlrfV-49" style="edgeStyle=orthogonalEdgeStyle;rounded=0;orthogonalLoop=1;jettySize=auto;html=1;exitX=0.75;exitY=1;exitDx=0;exitDy=0;exitPerimeter=0;entryX=0;entryY=0;entryDx=0;entryDy=39.975;entryPerimeter=0;dashed=1;" edge="1" parent="Sj5W9hqEelweWwCMlrfV-7" source="Sj5W9hqEelweWwCMlrfV-28" target="Sj5W9hqEelweWwCMlrfV-32">
          <mxGeometry relative="1" as="geometry" />
        </mxCell>
        <mxCell id="Sj5W9hqEelweWwCMlrfV-53" style="edgeStyle=orthogonalEdgeStyle;rounded=0;orthogonalLoop=1;jettySize=auto;html=1;entryX=0;entryY=0;entryDx=96.33;entryDy=30.5025;entryPerimeter=0;dashed=1;" edge="1" parent="Sj5W9hqEelweWwCMlrfV-7" source="Sj5W9hqEelweWwCMlrfV-35" target="Sj5W9hqEelweWwCMlrfV-31">
          <mxGeometry relative="1" as="geometry">
            <Array as="points">
              <mxPoint x="654" y="199" />
            </Array>
          </mxGeometry>
        </mxCell>
        <mxCell id="Sj5W9hqEelweWwCMlrfV-58" style="edgeStyle=orthogonalEdgeStyle;rounded=0;orthogonalLoop=1;jettySize=auto;html=1;exitX=0;exitY=0;exitDx=90;exitDy=54.44916666666667;exitPerimeter=0;entryX=0;entryY=0;entryDx=0;entryDy=30.5025;entryPerimeter=0;dashed=1;" edge="1" parent="Sj5W9hqEelweWwCMlrfV-7" source="Sj5W9hqEelweWwCMlrfV-28" target="Sj5W9hqEelweWwCMlrfV-31">
          <mxGeometry relative="1" as="geometry" />
        </mxCell>
        <mxCell id="Sj5W9hqEelweWwCMlrfV-59" style="edgeStyle=orthogonalEdgeStyle;rounded=0;orthogonalLoop=1;jettySize=auto;html=1;entryX=0;entryY=0;entryDx=0;entryDy=53.50750000000001;entryPerimeter=0;dashed=1;" edge="1" parent="Sj5W9hqEelweWwCMlrfV-7" source="Sj5W9hqEelweWwCMlrfV-32" target="Sj5W9hqEelweWwCMlrfV-31">
          <mxGeometry relative="1" as="geometry">
            <Array as="points">
              <mxPoint x="355" y="221" />
            </Array>
          </mxGeometry>
        </mxCell>
        <mxCell id="Sj5W9hqEelweWwCMlrfV-72" style="edgeStyle=orthogonalEdgeStyle;rounded=0;orthogonalLoop=1;jettySize=auto;html=1;entryX=0;entryY=0;entryDx=14;entryDy=0;entryPerimeter=0;dashed=1;" edge="1" parent="Sj5W9hqEelweWwCMlrfV-7" target="Sj5W9hqEelweWwCMlrfV-30">
          <mxGeometry relative="1" as="geometry">
            <mxPoint x="29.11" y="156.00849339285753" as="sourcePoint" />
            <Array as="points">
              <mxPoint x="29" y="156" />
            </Array>
          </mxGeometry>
        </mxCell>
        <mxCell id="Sj5W9hqEelweWwCMlrfV-89" style="edgeStyle=orthogonalEdgeStyle;rounded=0;orthogonalLoop=1;jettySize=auto;html=1;entryX=0.5;entryY=1;entryDx=0;entryDy=0;entryPerimeter=0;dashed=1;" edge="1" parent="Sj5W9hqEelweWwCMlrfV-7" source="Sj5W9hqEelweWwCMlrfV-35" target="Sj5W9hqEelweWwCMlrfV-32">
          <mxGeometry relative="1" as="geometry">
            <Array as="points">
              <mxPoint x="679" y="266" />
              <mxPoint x="167" y="266" />
            </Array>
          </mxGeometry>
        </mxCell>
        <mxCell id="Sj5W9hqEelweWwCMlrfV-70" value="" style="strokeWidth=2;html=1;shape=mxgraph.flowchart.database;whiteSpace=wrap;" vertex="1" parent="Sj5W9hqEelweWwCMlrfV-5">
          <mxGeometry x="199.99908844801274" y="479.1308690538952" width="48.11671342313051" height="41.88204114050446" as="geometry" />
        </mxCell>
        <mxCell id="Sj5W9hqEelweWwCMlrfV-74" style="edgeStyle=orthogonalEdgeStyle;rounded=0;orthogonalLoop=1;jettySize=auto;html=1;entryX=0;entryY=0.5;entryDx=0;entryDy=0;entryPerimeter=0;exitX=0.5;exitY=1;exitDx=0;exitDy=0;exitPerimeter=0;dashed=1;" edge="1" parent="Sj5W9hqEelweWwCMlrfV-5" source="Sj5W9hqEelweWwCMlrfV-30" target="Sj5W9hqEelweWwCMlrfV-70">
          <mxGeometry relative="1" as="geometry" />
        </mxCell>
        <mxCell id="Sj5W9hqEelweWwCMlrfV-77" value="&lt;div&gt;tests&lt;/div&gt;" style="shape=folder;fontStyle=1;tabWidth=60;tabHeight=27;tabPosition=left;html=1;boundedLbl=1;labelInHeader=1;container=1;collapsible=0;whiteSpace=wrap;" vertex="1" parent="Sj5W9hqEelweWwCMlrfV-5">
          <mxGeometry x="440" y="462.72" width="130" height="57.28" as="geometry" />
        </mxCell>
        <mxCell id="Sj5W9hqEelweWwCMlrfV-78" value="" style="html=1;strokeColor=none;resizeWidth=1;resizeHeight=1;fillColor=none;part=1;connectable=0;allowArrows=0;deletable=0;whiteSpace=wrap;" vertex="1" parent="Sj5W9hqEelweWwCMlrfV-77">
          <mxGeometry width="130" height="40.096000000000004" relative="1" as="geometry">
            <mxPoint y="30" as="offset" />
          </mxGeometry>
        </mxCell>
        <mxCell id="Sj5W9hqEelweWwCMlrfV-84" style="edgeStyle=orthogonalEdgeStyle;rounded=0;orthogonalLoop=1;jettySize=auto;html=1;entryX=0;entryY=0;entryDx=0;entryDy=42.14;entryPerimeter=0;dashed=1;endArrow=none;endFill=0;startArrow=classic;startFill=1;" edge="1" parent="Sj5W9hqEelweWwCMlrfV-5" source="Sj5W9hqEelweWwCMlrfV-7" target="Sj5W9hqEelweWwCMlrfV-77">
          <mxGeometry relative="1" as="geometry" />
        </mxCell>
        <mxCell id="Sj5W9hqEelweWwCMlrfV-65" style="edgeStyle=orthogonalEdgeStyle;rounded=0;orthogonalLoop=1;jettySize=auto;html=1;entryX=0.508;entryY=0.066;entryDx=0;entryDy=0;entryPerimeter=0;dashed=1;" edge="1" parent="Sj5W9hqEelweWwCMlrfV-1" source="Sj5W9hqEelweWwCMlrfV-3" target="Sj5W9hqEelweWwCMlrfV-5">
          <mxGeometry relative="1" as="geometry">
            <Array as="points">
              <mxPoint x="421" y="532" />
              <mxPoint x="420" y="605" />
            </Array>
          </mxGeometry>
        </mxCell>
        <mxCell id="Sj5W9hqEelweWwCMlrfV-87" value="app" style="shape=folder;fontStyle=1;tabWidth=110;tabHeight=30;tabPosition=left;html=1;boundedLbl=1;labelInHeader=1;container=1;collapsible=0;whiteSpace=wrap;" vertex="1" parent="1">
          <mxGeometry x="70" y="90" width="720" height="400" as="geometry" />
        </mxCell>
        <mxCell id="Sj5W9hqEelweWwCMlrfV-88" value="" style="html=1;strokeColor=none;resizeWidth=1;resizeHeight=1;fillColor=none;part=1;connectable=0;allowArrows=0;deletable=0;whiteSpace=wrap;" vertex="1" parent="Sj5W9hqEelweWwCMlrfV-87">
          <mxGeometry width="700.2739726027398" height="279.9988235343548" relative="1" as="geometry">
            <mxPoint y="30" as="offset" />
          </mxGeometry>
        </mxCell>
        <mxCell id="Sj5W9hqEelweWwCMlrfV-60" value="pages" style="shape=folder;fontStyle=1;tabWidth=40;tabHeight=30;tabPosition=left;html=1;boundedLbl=1;whiteSpace=wrap;" vertex="1" parent="Sj5W9hqEelweWwCMlrfV-87">
          <mxGeometry x="20" y="50.00475453938513" width="110.14" height="85.71392557174127" as="geometry" />
        </mxCell>
        <mxCell id="Sj5W9hqEelweWwCMlrfV-97" style="edgeStyle=orthogonalEdgeStyle;rounded=0;orthogonalLoop=1;jettySize=auto;html=1;dashed=1;" edge="1" parent="Sj5W9hqEelweWwCMlrfV-87" source="Sj5W9hqEelweWwCMlrfV-61" target="Sj5W9hqEelweWwCMlrfV-80">
          <mxGeometry relative="1" as="geometry" />
        </mxCell>
        <mxCell id="Sj5W9hqEelweWwCMlrfV-111" style="edgeStyle=orthogonalEdgeStyle;rounded=0;orthogonalLoop=1;jettySize=auto;html=1;dashed=1;" edge="1" parent="Sj5W9hqEelweWwCMlrfV-87" source="Sj5W9hqEelweWwCMlrfV-61" target="Sj5W9hqEelweWwCMlrfV-86">
          <mxGeometry relative="1" as="geometry">
            <Array as="points">
              <mxPoint x="380" y="300" />
              <mxPoint x="380" y="300" />
            </Array>
          </mxGeometry>
        </mxCell>
        <mxCell id="Sj5W9hqEelweWwCMlrfV-61" value="components" style="shape=folder;fontStyle=1;tabWidth=30;tabHeight=20;tabPosition=left;html=1;boundedLbl=1;whiteSpace=wrap;" vertex="1" parent="Sj5W9hqEelweWwCMlrfV-87">
          <mxGeometry x="335" y="164.10560097840565" width="90" height="82.34083050071216" as="geometry" />
        </mxCell>
        <mxCell id="Sj5W9hqEelweWwCMlrfV-80" value="assets" style="shape=folder;fontStyle=1;tabWidth=30;tabHeight=21;tabPosition=left;html=1;boundedLbl=1;whiteSpace=wrap;" vertex="1" parent="Sj5W9hqEelweWwCMlrfV-87">
          <mxGeometry x="640" y="39.99564102564102" width="70" height="62.82051282051282" as="geometry" />
        </mxCell>
        <mxCell id="Sj5W9hqEelweWwCMlrfV-86" value="utils" style="shape=folder;fontStyle=1;tabWidth=30;tabHeight=14;tabPosition=left;html=1;boundedLbl=1;whiteSpace=wrap;" vertex="1" parent="Sj5W9hqEelweWwCMlrfV-87">
          <mxGeometry x="355" y="327.4769230769231" width="70" height="54.94358974358974" as="geometry" />
        </mxCell>
        <mxCell id="Sj5W9hqEelweWwCMlrfV-91" value="repositories" style="shape=folder;fontStyle=1;tabWidth=32;tabHeight=23;tabPosition=left;html=1;boundedLbl=1;whiteSpace=wrap;" vertex="1" parent="Sj5W9hqEelweWwCMlrfV-87">
          <mxGeometry x="590" y="335.52512820512817" width="72.33" height="64.47179487179487" as="geometry" />
        </mxCell>
        <mxCell id="Sj5W9hqEelweWwCMlrfV-92" value="contexts" style="shape=folder;fontStyle=1;tabWidth=52;tabHeight=30;tabPosition=left;html=1;boundedLbl=1;whiteSpace=wrap;" vertex="1" parent="Sj5W9hqEelweWwCMlrfV-87">
          <mxGeometry x="617.6700000000001" y="235.89718746064298" width="92.33" height="85.71392557174127" as="geometry" />
        </mxCell>
        <mxCell id="Sj5W9hqEelweWwCMlrfV-100" style="edgeStyle=orthogonalEdgeStyle;rounded=0;orthogonalLoop=1;jettySize=auto;html=1;entryX=0;entryY=0;entryDx=0;entryDy=51.42857142857143;entryPerimeter=0;dashed=1;flowAnimation=0;" edge="1" parent="Sj5W9hqEelweWwCMlrfV-87" source="Sj5W9hqEelweWwCMlrfV-61" target="Sj5W9hqEelweWwCMlrfV-92">
          <mxGeometry relative="1" as="geometry">
            <Array as="points">
              <mxPoint x="400" y="287" />
            </Array>
          </mxGeometry>
        </mxCell>
        <mxCell id="Sj5W9hqEelweWwCMlrfV-62" value="services" style="shape=folder;fontStyle=1;tabWidth=30;tabHeight=24;tabPosition=left;html=1;boundedLbl=1;whiteSpace=wrap;" vertex="1" parent="Sj5W9hqEelweWwCMlrfV-87">
          <mxGeometry x="50.139999999999986" y="327.4769230769231" width="80" height="65.19999999999999" as="geometry" />
        </mxCell>
        <mxCell id="Sj5W9hqEelweWwCMlrfV-105" style="edgeStyle=orthogonalEdgeStyle;rounded=0;orthogonalLoop=1;jettySize=auto;html=1;entryX=0;entryY=0;entryDx=0;entryDy=33.8925;entryPerimeter=0;dashed=1;" edge="1" parent="Sj5W9hqEelweWwCMlrfV-87" source="Sj5W9hqEelweWwCMlrfV-61" target="Sj5W9hqEelweWwCMlrfV-62">
          <mxGeometry relative="1" as="geometry" />
        </mxCell>
        <mxCell id="Sj5W9hqEelweWwCMlrfV-114" style="edgeStyle=orthogonalEdgeStyle;rounded=0;orthogonalLoop=1;jettySize=auto;html=1;exitX=0;exitY=0;exitDx=110.14;exitDy=56.785538716223876;exitPerimeter=0;entryX=0;entryY=0;entryDx=15;entryDy=0;entryPerimeter=0;dashed=1;" edge="1" parent="Sj5W9hqEelweWwCMlrfV-87" source="Sj5W9hqEelweWwCMlrfV-60" target="Sj5W9hqEelweWwCMlrfV-61">
          <mxGeometry relative="1" as="geometry">
            <Array as="points">
              <mxPoint x="130" y="110" />
              <mxPoint x="350" y="110" />
            </Array>
          </mxGeometry>
        </mxCell>
        <mxCell id="Sj5W9hqEelweWwCMlrfV-116" style="edgeStyle=orthogonalEdgeStyle;rounded=0;orthogonalLoop=1;jettySize=auto;html=1;entryX=0;entryY=0;entryDx=0;entryDy=33.785;entryPerimeter=0;dashed=1;" edge="1" parent="Sj5W9hqEelweWwCMlrfV-87" source="Sj5W9hqEelweWwCMlrfV-62" target="Sj5W9hqEelweWwCMlrfV-86">
          <mxGeometry relative="1" as="geometry">
            <Array as="points">
              <mxPoint x="345" y="360" />
            </Array>
          </mxGeometry>
        </mxCell>
        <mxCell id="Sj5W9hqEelweWwCMlrfV-117" style="edgeStyle=orthogonalEdgeStyle;rounded=0;orthogonalLoop=1;jettySize=auto;html=1;entryX=0;entryY=0;entryDx=0;entryDy=52.894999999999996;entryPerimeter=0;dashed=1;" edge="1" parent="Sj5W9hqEelweWwCMlrfV-87" source="Sj5W9hqEelweWwCMlrfV-62" target="Sj5W9hqEelweWwCMlrfV-91">
          <mxGeometry relative="1" as="geometry">
            <Array as="points">
              <mxPoint x="340" y="388" />
              <mxPoint x="340" y="388" />
            </Array>
          </mxGeometry>
        </mxCell>
        <mxCell id="Sj5W9hqEelweWwCMlrfV-118" style="edgeStyle=orthogonalEdgeStyle;rounded=0;orthogonalLoop=1;jettySize=auto;html=1;entryX=0;entryY=0;entryDx=70;entryDy=23.8925;entryPerimeter=0;dashed=1;" edge="1" parent="Sj5W9hqEelweWwCMlrfV-87" source="Sj5W9hqEelweWwCMlrfV-91" target="Sj5W9hqEelweWwCMlrfV-86">
          <mxGeometry relative="1" as="geometry">
            <Array as="points">
              <mxPoint x="550" y="351" />
              <mxPoint x="550" y="351" />
            </Array>
          </mxGeometry>
        </mxCell>
        <mxCell id="Sj5W9hqEelweWwCMlrfV-119" style="edgeStyle=orthogonalEdgeStyle;rounded=0;orthogonalLoop=1;jettySize=auto;html=1;entryX=0;entryY=0;entryDx=0;entryDy=30;entryPerimeter=0;dashed=1;" edge="1" parent="Sj5W9hqEelweWwCMlrfV-87" source="Sj5W9hqEelweWwCMlrfV-60" target="Sj5W9hqEelweWwCMlrfV-92">
          <mxGeometry relative="1" as="geometry">
            <Array as="points">
              <mxPoint x="60" y="266" />
            </Array>
          </mxGeometry>
        </mxCell>
        <mxCell id="Sj5W9hqEelweWwCMlrfV-121" style="edgeStyle=orthogonalEdgeStyle;rounded=0;orthogonalLoop=1;jettySize=auto;html=1;entryX=0;entryY=0;entryDx=0;entryDy=21;entryPerimeter=0;dashed=1;exitX=0.567;exitY=0.351;exitDx=0;exitDy=0;exitPerimeter=0;" edge="1" parent="Sj5W9hqEelweWwCMlrfV-87" source="Sj5W9hqEelweWwCMlrfV-60" target="Sj5W9hqEelweWwCMlrfV-80">
          <mxGeometry relative="1" as="geometry">
            <Array as="points">
              <mxPoint x="84" y="80" />
              <mxPoint x="84" y="61" />
            </Array>
          </mxGeometry>
        </mxCell>
        <mxCell id="Sj5W9hqEelweWwCMlrfV-110" style="edgeStyle=orthogonalEdgeStyle;rounded=0;orthogonalLoop=1;jettySize=auto;html=1;entryX=0.551;entryY=0.995;entryDx=0;entryDy=0;entryPerimeter=0;dashed=1;" edge="1" parent="1" source="Sj5W9hqEelweWwCMlrfV-75" target="Sj5W9hqEelweWwCMlrfV-87">
          <mxGeometry relative="1" as="geometry">
            <Array as="points">
              <mxPoint x="467" y="530" />
            </Array>
          </mxGeometry>
        </mxCell>
      </root>
    </mxGraphModel>
  </diagram>
</mxfile>
